<svg width="96" height="32" xmlns="http://www.w3.org/2000/svg">
    <defs>
        <symbol id="icon-premium" viewBox="0 0 96 32">
            <path id="svg_1" fill="#471a7b" d="m2.61711,0c-1.69611,5.01428 -2.61711,10.3973 -2.61711,16s0.921,10.9857 2.61711,16l90.76579,0c1.6961,-5.0143 2.6171,-10.3973 2.6171,-16s-0.921,-10.98572 -2.6171,-16l-90.76579,0z"/>
            <g id="svg_2" fill="#f7d869">
                <path id="svg_3" d="m14.9764,10l-3.9764,0l0,11.7978l1.6244,0l0,-4.7191l2.2674,0c2.7073,0 4.1287,-1.4832 4.1287,-3.5394s-1.3876,-3.5393 -4.0441,-3.5393zm0.1861,5.7472l-2.5381,0l0,-4.4157l2.5381,0c1.3198,0 2.1997,0.8764 2.1997,2.2078c0,1.3315 -0.8799,2.2079 -2.1997,2.2079z"/>
                <path id="svg_4" d="m28.022,21.7978l2.2336,0l-4.5517,-5.2248c1.8782,-0.3876 2.8427,-1.6179 2.8427,-3.2191c0,-1.955 -1.3875,-3.3539 -4.0441,-3.3539l-3.621,0l0,11.7978l1.6244,0l0,-5.1068l1.269,0l4.2471,5.1068zm-5.5161,-10.4832l2.2166,0c1.3198,0 2.1658,0.7921 2.1658,2.0562c0,1.2472 -0.846,2.0562 -2.1658,2.0562l-2.2166,0l0,-4.1124z"/>
                <path id="svg_5" d="m39.0508,11.4157l0,-1.4157l-7.4451,0l0,11.7978l7.4451,0l0,-1.4158l-5.8207,0l0,-3.9438l4.9747,0l0,-1.4157l-4.9747,0l0,-3.6068l5.8207,0z"/>
                <path id="svg_6" d="m51.6665,10l-4.4502,7.5169l-4.4502,-7.5169l-1.6921,0l0,11.7978l1.6244,0l0,-9.1012l4.4671,7.5843l4.4671,-7.5843l0,9.1012l1.6244,0l0,-11.7978l-1.5905,0z"/>
                <path id="svg_7" d="m56.047,21.7978l1.6243,0l0,-11.7978l-1.6243,0l0,11.7978z"/>
                <path id="svg_8" d="m65.2794,22c2.978,0 4.907,-1.8371 4.907,-4.7528l0,-7.2472l-1.6244,0l0,7.3315c0,1.8539 -1.2691,3.2191 -3.2826,3.2191c-2.0136,0 -3.2827,-1.3652 -3.2827,-3.2191l0,-7.3315l-1.6244,0l0,7.2472c0,2.9157 1.929,4.7528 4.9071,4.7528z"/>
                <path id="svg_9" d="m83.4094,10l-4.4501,7.5169l-4.4502,-7.5169l-1.6921,0l0,11.7978l1.6244,0l0,-9.1012l4.4671,7.5843l4.4671,-7.5843l0,9.1012l1.6244,0l0,-11.7978l-1.5906,0z"/>
            </g>
        </symbol>
    </defs>
    <use id="svg_10" href="#icon-premium"/>
</svg>
